<?xml version="1.0" standalone="no"?>
<!DOCTYPE svg PUBLIC "-//W3C//DTD SVG 20010904//EN"
 "http://www.w3.org/TR/2001/REC-SVG-20010904/DTD/svg10.dtd">
<svg version="1.0" xmlns="http://www.w3.org/2000/svg"
 width="512.000000pt" height="512.000000pt" viewBox="0 0 512.000000 512.000000"
 preserveAspectRatio="xMidYMid meet">
<metadata>
Created by potrace 1.16, written by Peter Selinger 2001-2019
</metadata>
<g transform="translate(0.000000,512.000000) scale(0.100000,-0.100000)"
fill="#000000" stroke="none">
<path d="M0 2560 l0 -2560 2560 0 2560 0 0 2560 0 2560 -2560 0 -2560 0 0
-2560z m2843 1175 c188 -36 331 -109 458 -235 166 -164 261 -371 304 -660 17
-117 30 -385 21 -434 l-7 -36 -744 0 c-442 0 -745 -4 -745 -9 0 -5 8 -36 19
-69 109 -350 461 -471 986 -337 53 13 134 40 181 61 47 20 86 35 88 33 4 -5
96 -471 96 -486 0 -28 -236 -118 -411 -157 -226 -50 -497 -59 -694 -22 -503
93 -824 447 -886 976 -14 128 -7 394 15 500 51 255 151 448 316 610 161 158
366 251 616 280 99 11 293 4 387 -15z"/>
<path d="M2455 3237 c-81 -22 -148 -62 -204 -123 -66 -72 -99 -139 -124 -251
l-5 -23 454 0 455 0 -6 38 c-29 170 -120 288 -264 343 -70 26 -232 35 -306 16z"/>
</g>
</svg>
